<svg id="Layer_1" height="512" viewBox="0 0 64 64" width="512" xmlns="http://www.w3.org/2000/svg" data-name="Layer 1"><path d="m35.1 1.22c.7 1.5 4.72 10.57 3.75 19.42a28.251 28.251 0 0 1 -3.85 11.36 28.251 28.251 0 0 0 -3.85 11.36c-.98 8.92 3.1 18.05 3.76 19.45a21.445 21.445 0 0 1 -2.91.19 21.145 21.145 0 0 1 -3.1-.22c-.7-1.5-4.72-10.57-3.75-19.42a28.251 28.251 0 0 1 3.85-11.36 28.251 28.251 0 0 0 3.85-11.36c.98-8.92-3.1-18.05-3.76-19.45a21.445 21.445 0 0 1 2.91-.19 21.145 21.145 0 0 1 3.1.22z" fill="#a08073"/><path d="m55 24v16a23 23 0 0 1 -20.09 22.81c-.66-1.4-4.74-10.53-3.76-19.45a28.251 28.251 0 0 1 3.85-11.36 28.251 28.251 0 0 0 3.85-11.36c.97-8.85-3.05-17.92-3.75-19.42a22.993 22.993 0 0 1 19.9 22.78z" fill="#7c523a"/><path d="m29.09 1.19c.66 1.4 4.74 10.53 3.76 19.45a28.251 28.251 0 0 1 -3.85 11.36 28.251 28.251 0 0 0 -3.85 11.36c-.97 8.85 3.05 17.92 3.75 19.42a22.979 22.979 0 0 1 -19.9-22.78v-16a23 23 0 0 1 20.09-22.81z" fill="#7c523a"/><g fill="#252525"><circle cx="15" cy="32" r="1"/><circle cx="15" cy="36" r="1"/><path d="m48.967 7.033a24.006 24.006 0 0 0 -13.719-6.802 23.278 23.278 0 0 0 -6.283-.031 24.023 24.023 0 0 0 -20.965 23.8v16a24.032 24.032 0 0 0 20.752 23.769 22.211 22.211 0 0 0 3.248.231 22.727 22.727 0 0 0 3.041-.2 24.023 24.023 0 0 0 20.959-23.8v-16a23.841 23.841 0 0 0 -7.033-16.967zm5.033 32.967a22.02 22.02 0 0 1 -19.215 21.818 17.1 17.1 0 0 1 -5.209.03c-1.1-2.486-4.293-10.517-3.432-18.379a27.307 27.307 0 0 1 3.726-10.975 29.2 29.2 0 0 0 3.974-11.744 37.445 37.445 0 0 0 -1.935-15.059 1 1 0 0 0 -1.9.618 35.427 35.427 0 0 1 1.85 14.222 27.307 27.307 0 0 1 -3.729 10.975 29.2 29.2 0 0 0 -3.974 11.745c-.8 7.346 1.7 14.778 3.086 18.213a22.039 22.039 0 0 1 -17.242-21.464v-16a22.022 22.022 0 0 1 19.225-21.819 20.4 20.4 0 0 1 5.2-.029c1.1 2.486 4.293 10.517 3.432 18.379a27.307 27.307 0 0 1 -3.727 10.975 29.2 29.2 0 0 0 -3.974 11.744 37.322 37.322 0 0 0 1.892 14.924.973.973 0 0 0 1.258.646.99.99 0 0 0 .646-1.258 35.348 35.348 0 0 1 -1.808-14.093 27.307 27.307 0 0 1 3.726-10.975 29.2 29.2 0 0 0 3.974-11.745c.8-7.332-1.687-14.75-3.09-18.221a22 22 0 0 1 17.246 21.472z"/><path d="m23.527 8.119a18.008 18.008 0 0 0 -9.527 15.881v4a1 1 0 0 0 2 0v-4a16.012 16.012 0 0 1 8.473-14.119 1 1 0 0 0 -.946-1.762z"/><path d="m39.527 54.119a1 1 0 0 0 -.408 1.354 1.031 1.031 0 0 0 1.354.408 18.008 18.008 0 0 0 9.527-15.881v-4a1 1 0 0 0 -2 0v4a16.012 16.012 0 0 1 -8.473 14.119z"/><circle cx="49" cy="32" r="1"/></g></svg>